PathFileType	4	(X/Y/Z)	 control3min.trc
DataRate	CameraRate	NumFrames	NumMarkers	Units	OrigDataRate	OrigDataStartFrame	OrigNumFrames
200	200	10	35	m	200	126	1000
Frame#	Time	C7			LSH			RSH			MAN			RASI			LASI			HIPR			HIPL			RPSI			LPSI			COX			RTHI1			RTHI2			RTHI3			RTHI4			RSHA1			RSHA2			RSHA3			RSHA4			RHEEL			RMET5			RMET1			RTOE			LTHI1			LTHI2			LTHI3			LTHI4			LSHA1			LSHA2			LSHA3			LSHA4			LHEEL			LMET5			LMET1			LTOE			
		X1	Y1	Z1	X2	Y2	Z2	X3	Y3	Z3	X4	Y4	Z4	X5	Y5	Z5	X6	Y6	Z6	X7	Y7	Z7	X8	Y8	Z8	X9	Y9	Z9	X10	Y10	Z10	X11	Y11	Z11	X12	Y12	Z12	X13	Y13	Z13	X14	Y14	Z14	X15	Y15	Z15	X16	Y16	Z16	X17	Y17	Z17	X18	Y18	Z18	X19	Y19	Z19	X20	Y20	Z20	X21	Y21	Z21	X22	Y22	Z22	X23	Y23	Z23	X24	Y24	Z24	X25	Y25	Z25	X26	Y26	Z26	X27	Y27	Z27	X28	Y28	Z28	X29	Y29	Z29	X30	Y30	Z30	X31	Y31	Z31	X32	Y32	Z32	X33	Y33	Z33	X34	Y34	Z34	X35	Y35	Z35	
126	0.6300	-0.295823	1.419593	-0.525957	-0.237636	1.389153	-0.684421	-0.242415	1.399355	-0.354392	-0.184447	1.373395	-0.520912	-0.147272	0.986643	-0.429297	-0.137250	0.999010	-0.621045	-0.194079	1.031193	-0.385433	-0.185505	1.043359	-0.646469	-0.288372	1.026083	-0.459941	-0.278233	1.033522	-0.571224	-0.291314	1.030666	-0.519607	-0.238155	0.777048	-0.348769	-0.222281	0.719637	-0.344717	-0.159032	0.735277	-0.346707	-0.168258	0.795787	-0.351542	-0.280562	0.354727	-0.326010	-0.294462	0.315425	-0.326171	-0.233733	0.302356	-0.329194	-0.225294	0.342136	-0.330423	-0.357752	0.148064	-0.382607	-0.236559	0.050614	-0.316503	-0.203046	0.045346	-0.383860	-0.184076	0.032513	-0.370260	-0.214123	0.798254	-0.695482	-0.198143	0.738569	-0.699187	-0.135658	0.748800	-0.686398	-0.142894	0.808474	-0.680984	-0.281777	0.327042	-0.712317	-0.296445	0.289543	-0.708158	-0.235555	0.273440	-0.704252	-0.228825	0.316903	-0.710042	-0.356168	0.148490	-0.664903	-0.231615	0.045071	-0.715695	-0.201297	0.046590	-0.650559	-0.181364	0.032373	-0.660573	
127	0.6350	-0.295714	1.420782	-0.526045	-0.237648	1.390451	-0.684487	-0.242566	1.400713	-0.354554	-0.184401	1.374727	-0.520980	-0.147301	0.987713	-0.429374	-0.137391	1.000064	-0.621056	-0.193917	1.032439	-0.385482	-0.185578	1.044564	-0.646410	-0.288307	1.027528	-0.459816	-0.278302	1.034914	-0.571135	-0.291338	1.032096	-0.519472	-0.238086	0.778091	-0.348460	-0.222229	0.720680	-0.344525	-0.158979	0.736264	-0.346973	-0.168192	0.796773	-0.351727	-0.280418	0.355666	-0.326175	-0.294246	0.316369	-0.326314	-0.233530	0.303420	-0.329451	-0.225167	0.343207	-0.330718	-0.357227	0.148692	-0.383050	-0.236097	0.052026	-0.315907	-0.202076	0.046585	-0.382891	-0.183133	0.033841	-0.369084	-0.214365	0.799280	-0.695550	-0.198393	0.739593	-0.699259	-0.135924	0.749812	-0.686424	-0.143153	0.809485	-0.680991	-0.281730	0.328001	-0.712241	-0.296264	0.290439	-0.708060	-0.235306	0.274541	-0.704326	-0.228737	0.318034	-0.710111	-0.355265	0.149032	-0.664671	-0.230413	0.046031	-0.715621	-0.199811	0.047931	-0.650716	-0.179844	0.033767	-0.660788	
128	0.6400	-0.295563	1.421885	-0.526202	-0.237619	1.391493	-0.684550	-0.242707	1.401792	-0.354696	-0.184332	1.375789	-0.521038	-0.147382	0.988551	-0.429432	-0.137564	1.000896	-0.621079	-0.193855	1.033428	-0.385519	-0.185713	1.045510	-0.646365	-0.288319	1.028663	-0.459696	-0.278435	1.036004	-0.571047	-0.291411	1.033208	-0.519344	-0.237884	0.778909	-0.348048	-0.222027	0.721505	-0.344269	-0.158790	0.737039	-0.347297	-0.168018	0.797548	-0.351942	-0.280314	0.356437	-0.326339	-0.294112	0.317141	-0.326430	-0.233385	0.304265	-0.329753	-0.225073	0.344057	-0.331062	-0.356839	0.149103	-0.383562	-0.235683	0.053389	-0.315322	-0.201152	0.047774	-0.381986	-0.182214	0.035185	-0.367980	-0.214510	0.800077	-0.695646	-0.198537	0.740386	-0.699331	-0.136096	0.750603	-0.686391	-0.143330	0.810270	-0.680952	-0.281775	0.328792	-0.712089	-0.296184	0.291183	-0.707872	-0.235171	0.275453	-0.704383	-0.228741	0.318965	-0.710164	-0.354514	0.149357	-0.664379	-0.229234	0.046930	-0.715487	-0.198371	0.049252	-0.650772	-0.178332	0.035176	-0.660867	
129	0.6450	-0.295377	1.422568	-0.526266	-0.237548	1.392272	-0.684611	-0.242835	1.402594	-0.354816	-0.184246	1.376590	-0.521084	-0.147508	0.989181	-0.429475	-0.137764	1.001507	-0.621110	-0.193904	1.034155	-0.385533	-0.185903	1.046190	-0.646330	-0.288404	1.029483	-0.459571	-0.278624	1.036790	-0.570962	-0.291534	1.034025	-0.519235	-0.237557	0.779509	-0.347556	-0.221682	0.722115	-0.343958	-0.158478	0.737633	-0.347670	-0.167740	0.798132	-0.352186	-0.280249	0.357034	-0.326497	-0.293985	0.317680	-0.326718	-0.233301	0.304897	-0.330087	-0.225016	0.344687	-0.331416	-0.356590	0.149322	-0.384114	-0.235309	0.054644	-0.314801	-0.200299	0.048888	-0.381185	-0.181342	0.036493	-0.367011	-0.214569	0.800646	-0.695759	-0.198583	0.740959	-0.699397	-0.136181	0.751185	-0.686297	-0.143431	0.810841	-0.680867	-0.281898	0.329408	-0.711871	-0.296189	0.291761	-0.707601	-0.235125	0.276157	-0.704408	-0.228819	0.319700	-0.710198	-0.353906	0.149471	-0.664034	-0.228101	0.047739	-0.715290	-0.196986	0.050530	-0.650741	-0.176850	0.036578	-0.660829	
130	0.6500	-0.295140	1.423165	-0.526386	-0.237433	1.392797	-0.684671	-0.242950	1.403117	-0.354914	-0.184142	1.377129	-0.521121	-0.147678	0.989594	-0.429499	-0.137991	1.001899	-0.621147	-0.194040	1.034636	-0.385532	-0.186152	1.046602	-0.646295	-0.288545	1.029976	-0.459448	-0.278864	1.037278	-0.570879	-0.291712	1.034532	-0.519131	-0.237116	0.779902	-0.347011	-0.221205	0.722504	-0.343601	-0.158052	0.738035	-0.348066	-0.167367	0.798524	-0.352450	-0.280226	0.357441	-0.326699	-0.293906	0.318012	-0.327069	-0.233279	0.305314	-0.330436	-0.224998	0.345103	-0.331797	-0.356470	0.149368	-0.384664	-0.234972	0.055757	-0.314386	-0.199541	0.049889	-0.380536	-0.180545	0.037681	-0.366227	-0.214554	0.801001	-0.695880	-0.198545	0.741320	-0.699453	-0.136190	0.751561	-0.686142	-0.143468	0.811203	-0.680734	-0.282070	0.329833	-0.711589	-0.296261	0.292161	-0.707264	-0.235157	0.276643	-0.704398	-0.228955	0.320213	-0.710204	-0.353431	0.149383	-0.663641	-0.227034	0.048432	-0.715038	-0.195683	0.051727	-0.650632	-0.175422	0.037920	-0.660693	
131	0.6550	-0.294900	1.423509	-0.526534	-0.237273	1.393070	-0.684731	-0.243053	1.403354	-0.354987	-0.184022	1.377405	-0.521148	-0.147883	0.989792	-0.429508	-0.138235	1.002066	-0.621185	-0.194267	1.034853	-0.385504	-0.186455	1.046752	-0.646255	-0.288767	1.030192	-0.459344	-0.279145	1.037474	-0.570798	-0.291936	1.034736	-0.519032	-0.236571	0.780079	-0.346438	-0.220610	0.722681	-0.343218	-0.157520	0.738239	-0.348482	-0.166908	0.798716	-0.352737	-0.280240	0.357649	-0.326924	-0.293888	0.318161	-0.327423	-0.233313	0.305514	-0.330786	-0.225022	0.345299	-0.332167	-0.356468	0.149252	-0.385187	-0.234684	0.056653	-0.314112	-0.198903	0.050724	-0.380077	-0.179855	0.038689	-0.365664	-0.214475	0.801146	-0.696000	-0.198433	0.741474	-0.699503	-0.136137	0.751732	-0.685933	-0.143454	0.811365	-0.680554	-0.282270	0.330062	-0.711265	-0.296379	0.292372	-0.706878	-0.235244	0.276917	-0.704346	-0.229122	0.320503	-0.710173	-0.353076	0.149108	-0.663204	-0.226055	0.048978	-0.714736	-0.194473	0.052803	-0.650472	-0.174077	0.039162	-0.660489	
132	0.6600	-0.294652	1.423635	-0.526663	-0.237071	1.393085	-0.684796	-0.243139	1.403309	-0.355036	-0.183892	1.377429	-0.521167	-0.148113	0.989788	-0.429502	-0.138493	1.002015	-0.621220	-0.194551	1.034828	-0.385463	-0.186803	1.046638	-0.646208	-0.289046	1.030111	-0.459246	-0.279462	1.037378	-0.570715	-0.292204	1.034646	-0.518937	-0.235935	0.780049	-0.345857	-0.219910	0.722649	-0.342824	-0.156899	0.738238	-0.348913	-0.166369	0.798710	-0.353046	-0.280288	0.357653	-0.327175	-0.293941	0.318146	-0.327725	-0.233396	0.305496	-0.331124	-0.225083	0.345275	-0.332518	-0.356573	0.148992	-0.385663	-0.234464	0.057279	-0.314010	-0.198413	0.051362	-0.379836	-0.179304	0.039458	-0.365351	-0.214342	0.801084	-0.696111	-0.198257	0.741428	-0.699544	-0.136031	0.751710	-0.685679	-0.143399	0.811331	-0.680330	-0.282480	0.330091	-0.710914	-0.296524	0.292394	-0.706463	-0.235370	0.276970	-0.704252	-0.229306	0.320560	-0.710097	-0.352832	0.148660	-0.662725	-0.225196	0.049339	-0.714397	-0.193373	0.053722	-0.650282	-0.172841	0.040247	-0.660247	
133	0.6650	-0.294381	1.423448	-0.526794	-0.236832	1.392842	-0.684868	-0.243209	1.402984	-0.355059	-0.183754	1.377205	-0.521179	-0.148367	0.989570	-0.429480	-0.138764	1.001740	-0.621253	-0.194884	1.034557	-0.385406	-0.187192	1.046266	-0.646151	-0.289364	1.029737	-0.459165	-0.279806	1.037001	-0.570636	-0.292502	1.034270	-0.518856	-0.235220	0.779807	-0.345241	-0.219126	0.722397	-0.342433	-0.156203	0.738033	-0.349353	-0.165761	0.798506	-0.353370	-0.280363	0.357463	-0.327433	-0.294022	0.317947	-0.328041	-0.233517	0.305265	-0.331437	-0.225176	0.345036	-0.332835	-0.356776	0.148597	-0.386080	-0.234333	0.057574	-0.314097	-0.198093	0.051777	-0.379835	-0.178910	0.039953	-0.365312	-0.214164	0.800811	-0.696211	-0.198025	0.741175	-0.699573	-0.135877	0.751492	-0.685385	-0.143311	0.811105	-0.680068	-0.282671	0.329917	-0.710543	-0.296678	0.292208	-0.706029	-0.235510	0.276796	-0.704111	-0.229482	0.320384	-0.709978	-0.352682	0.148050	-0.662205	-0.224483	0.049491	-0.714025	-0.192414	0.054423	-0.650062	-0.171753	0.041107	-0.659973	
134	0.6700	-0.294199	1.423004	-0.526932	-0.236558	1.392347	-0.684947	-0.243265	1.402383	-0.355057	-0.183611	1.376725	-0.521182	-0.148642	0.989118	-0.429442	-0.139050	1.001235	-0.621283	-0.195246	1.034042	-0.385338	-0.187618	1.045643	-0.646085	-0.289711	1.029057	-0.459106	-0.280171	1.036349	-0.570560	-0.292820	1.033602	-0.518785	-0.234441	0.779338	-0.344611	-0.218277	0.721919	-0.342064	-0.155449	0.737604	-0.349792	-0.165099	0.798085	-0.353705	-0.280456	0.357069	-0.327686	-0.294166	0.317599	-0.328255	-0.233668	0.304820	-0.331719	-0.225287	0.344581	-0.333115	-0.357063	0.148079	-0.386422	-0.234304	0.057514	-0.314378	-0.197956	0.051922	-0.380079	-0.178698	0.040132	-0.365552	-0.213954	0.800334	-0.696300	-0.197746	0.740713	-0.699589	-0.135686	0.751073	-0.685063	-0.143205	0.810683	-0.679776	-0.282829	0.329533	-0.710158	-0.296830	0.291814	-0.705588	-0.235655	0.276398	-0.703930	-0.229640	0.319969	-0.709814	-0.352615	0.147296	-0.661649	-0.223942	0.049396	-0.713632	-0.191638	0.054835	-0.649818	-0.170855	0.041664	-0.659676	
135	0.6750	-0.293933	1.422451	-0.527092	-0.236250	1.391600	-0.685035	-0.243312	1.401511	-0.355028	-0.183465	1.375997	-0.521178	-0.148928	0.988436	-0.429396	-0.139347	1.000504	-0.621309	-0.195637	1.033267	-0.385257	-0.188049	1.044789	-0.646024	-0.290113	1.028134	-0.459067	-0.280552	1.035431	-0.570486	-0.293147	1.032658	-0.518729	-0.233608	0.778644	-0.343982	-0.217384	0.721215	-0.341750	-0.154655	0.736958	-0.350252	-0.164395	0.797436	-0.354046	-0.280554	0.356470	-0.327915	-0.294337	0.317086	-0.328416	-0.233830	0.304152	-0.331974	-0.225400	0.343901	-0.333363	-0.357424	0.147434	-0.386694	-0.234389	0.057062	-0.314858	-0.198010	0.051765	-0.380564	-0.178678	0.039974	-0.366071	-0.213725	0.799635	-0.696375	-0.197429	0.740036	-0.699594	-0.135467	0.750458	-0.684727	-0.143091	0.810061	-0.679464	-0.282952	0.328934	-0.709767	-0.296961	0.291211	-0.705136	-0.235790	0.275772	-0.703711	-0.229763	0.319324	-0.709603	-0.352617	0.146420	-0.661056	-0.223603	0.049030	-0.713234	-0.191078	0.054893	-0.649554	-0.170194	0.041854	-0.659359	
